<mxfile host="Electron" modified="2023-12-12T13:20:39.814Z" agent="Mozilla/5.0 (Windows NT 10.0; Win64; x64) AppleWebKit/537.36 (KHTML, like Gecko) draw.io/21.6.5 Chrome/114.0.5735.243 Electron/25.3.1 Safari/537.36" etag="k_oiN5XlWkBDhsco8VsX" version="21.6.5" type="device">
  <diagram name="Page-1" id="wjSl2jKwSkH-KG0pPpFf">
    <mxGraphModel dx="1404" dy="814" grid="1" gridSize="8" guides="0" tooltips="1" connect="1" arrows="0" fold="1" page="1" pageScale="1" pageWidth="2560" pageHeight="1440" background="#ffffff" math="0" shadow="0">
      <root>
        <mxCell id="0" />
        <mxCell id="1" parent="0" />
        <mxCell id="rvmtaYyFq73dS3PlPo8G-1" value="module" style="rounded=0;whiteSpace=wrap;html=1;" parent="1" vertex="1">
          <mxGeometry x="64" y="16" width="192" height="192" as="geometry" />
        </mxCell>
        <mxCell id="l6OGeaEmu5MbRwiX80PM-1" value="&lt;i&gt;master&lt;/i&gt;" style="rounded=1;whiteSpace=wrap;html=1;verticalAlign=top;fillColor=#E6E6E6;" parent="1" vertex="1">
          <mxGeometry x="32" y="32" width="64" height="160" as="geometry" />
        </mxCell>
        <mxCell id="l6OGeaEmu5MbRwiX80PM-2" value="vld" style="text;html=1;strokeColor=none;fillColor=none;align=right;verticalAlign=middle;whiteSpace=wrap;rounded=0;" parent="1" vertex="1">
          <mxGeometry x="48" y="64" width="48" height="16" as="geometry" />
        </mxCell>
        <mxCell id="l6OGeaEmu5MbRwiX80PM-3" value="data" style="text;html=1;strokeColor=none;fillColor=none;align=right;verticalAlign=middle;whiteSpace=wrap;rounded=0;" parent="1" vertex="1">
          <mxGeometry x="48" y="160" width="48" height="16" as="geometry" />
        </mxCell>
        <mxCell id="l6OGeaEmu5MbRwiX80PM-4" value="" style="rounded=1;whiteSpace=wrap;html=1;" parent="1" vertex="1">
          <mxGeometry x="32" y="64" width="16" height="16" as="geometry" />
        </mxCell>
        <mxCell id="l6OGeaEmu5MbRwiX80PM-5" style="edgeStyle=orthogonalEdgeStyle;rounded=0;orthogonalLoop=1;jettySize=auto;html=1;exitX=0;exitY=0.5;exitDx=0;exitDy=0;entryX=1;entryY=0.5;entryDx=0;entryDy=0;" parent="1" source="l6OGeaEmu5MbRwiX80PM-4" target="l6OGeaEmu5MbRwiX80PM-4" edge="1">
          <mxGeometry relative="1" as="geometry" />
        </mxCell>
        <mxCell id="l6OGeaEmu5MbRwiX80PM-6" value="rdy" style="text;html=1;strokeColor=none;fillColor=none;align=right;verticalAlign=middle;whiteSpace=wrap;rounded=0;" parent="1" vertex="1">
          <mxGeometry x="48" y="96" width="48" height="16" as="geometry" />
        </mxCell>
        <mxCell id="l6OGeaEmu5MbRwiX80PM-7" value="" style="rounded=1;whiteSpace=wrap;html=1;" parent="1" vertex="1">
          <mxGeometry x="32" y="96" width="16" height="16" as="geometry" />
        </mxCell>
        <mxCell id="l6OGeaEmu5MbRwiX80PM-8" style="edgeStyle=orthogonalEdgeStyle;rounded=0;orthogonalLoop=1;jettySize=auto;html=1;exitX=1;exitY=0.5;exitDx=0;exitDy=0;entryX=0;entryY=0.5;entryDx=0;entryDy=0;" parent="1" source="l6OGeaEmu5MbRwiX80PM-7" target="l6OGeaEmu5MbRwiX80PM-7" edge="1">
          <mxGeometry relative="1" as="geometry" />
        </mxCell>
        <mxCell id="l6OGeaEmu5MbRwiX80PM-9" value="xfer" style="text;html=1;strokeColor=none;fillColor=none;align=right;verticalAlign=middle;whiteSpace=wrap;rounded=0;" parent="1" vertex="1">
          <mxGeometry x="48" y="128" width="48" height="16" as="geometry" />
        </mxCell>
        <mxCell id="l6OGeaEmu5MbRwiX80PM-10" value="" style="rounded=1;whiteSpace=wrap;html=1;" parent="1" vertex="1">
          <mxGeometry x="32" y="160" width="16" height="16" as="geometry" />
        </mxCell>
        <mxCell id="l6OGeaEmu5MbRwiX80PM-11" style="edgeStyle=orthogonalEdgeStyle;rounded=0;orthogonalLoop=1;jettySize=auto;html=1;exitX=0;exitY=0.5;exitDx=0;exitDy=0;entryX=1;entryY=0.5;entryDx=0;entryDy=0;" parent="1" source="l6OGeaEmu5MbRwiX80PM-10" target="l6OGeaEmu5MbRwiX80PM-10" edge="1">
          <mxGeometry relative="1" as="geometry" />
        </mxCell>
        <mxCell id="rvmtaYyFq73dS3PlPo8G-2" value="&lt;i&gt;slave&lt;/i&gt;" style="rounded=1;whiteSpace=wrap;html=1;verticalAlign=top;fillColor=#E6E6E6;" parent="1" vertex="1">
          <mxGeometry x="224" y="32" width="64" height="160" as="geometry" />
        </mxCell>
        <mxCell id="rvmtaYyFq73dS3PlPo8G-3" value="vld" style="text;html=1;strokeColor=none;fillColor=none;align=left;verticalAlign=middle;whiteSpace=wrap;rounded=0;" parent="1" vertex="1">
          <mxGeometry x="224" y="64" width="48" height="16" as="geometry" />
        </mxCell>
        <mxCell id="rvmtaYyFq73dS3PlPo8G-4" value="data" style="text;html=1;strokeColor=none;fillColor=none;align=left;verticalAlign=middle;whiteSpace=wrap;rounded=0;" parent="1" vertex="1">
          <mxGeometry x="224" y="160" width="48" height="16" as="geometry" />
        </mxCell>
        <mxCell id="rvmtaYyFq73dS3PlPo8G-5" value="" style="rounded=1;whiteSpace=wrap;html=1;" parent="1" vertex="1">
          <mxGeometry x="272" y="64" width="16" height="16" as="geometry" />
        </mxCell>
        <mxCell id="rvmtaYyFq73dS3PlPo8G-6" style="edgeStyle=orthogonalEdgeStyle;rounded=0;orthogonalLoop=1;jettySize=auto;html=1;exitX=0;exitY=0.5;exitDx=0;exitDy=0;entryX=1;entryY=0.5;entryDx=0;entryDy=0;" parent="1" source="rvmtaYyFq73dS3PlPo8G-5" target="rvmtaYyFq73dS3PlPo8G-5" edge="1">
          <mxGeometry relative="1" as="geometry" />
        </mxCell>
        <mxCell id="rvmtaYyFq73dS3PlPo8G-7" value="rdy" style="text;html=1;strokeColor=none;fillColor=none;align=left;verticalAlign=middle;whiteSpace=wrap;rounded=0;" parent="1" vertex="1">
          <mxGeometry x="224" y="96" width="48" height="16" as="geometry" />
        </mxCell>
        <mxCell id="rvmtaYyFq73dS3PlPo8G-8" value="" style="rounded=1;whiteSpace=wrap;html=1;" parent="1" vertex="1">
          <mxGeometry x="272" y="96" width="16" height="16" as="geometry" />
        </mxCell>
        <mxCell id="rvmtaYyFq73dS3PlPo8G-9" style="edgeStyle=orthogonalEdgeStyle;rounded=0;orthogonalLoop=1;jettySize=auto;html=1;exitX=1;exitY=0.5;exitDx=0;exitDy=0;entryX=0;entryY=0.5;entryDx=0;entryDy=0;" parent="1" source="rvmtaYyFq73dS3PlPo8G-8" target="rvmtaYyFq73dS3PlPo8G-8" edge="1">
          <mxGeometry relative="1" as="geometry" />
        </mxCell>
        <mxCell id="rvmtaYyFq73dS3PlPo8G-10" value="xfer" style="text;html=1;strokeColor=none;fillColor=none;align=left;verticalAlign=middle;whiteSpace=wrap;rounded=0;" parent="1" vertex="1">
          <mxGeometry x="224" y="128" width="48" height="16" as="geometry" />
        </mxCell>
        <mxCell id="rvmtaYyFq73dS3PlPo8G-11" value="" style="rounded=1;whiteSpace=wrap;html=1;" parent="1" vertex="1">
          <mxGeometry x="272" y="160" width="16" height="16" as="geometry" />
        </mxCell>
        <mxCell id="rvmtaYyFq73dS3PlPo8G-12" style="edgeStyle=orthogonalEdgeStyle;rounded=0;orthogonalLoop=1;jettySize=auto;html=1;exitX=0;exitY=0.5;exitDx=0;exitDy=0;entryX=1;entryY=0.5;entryDx=0;entryDy=0;" parent="1" source="rvmtaYyFq73dS3PlPo8G-11" target="rvmtaYyFq73dS3PlPo8G-11" edge="1">
          <mxGeometry relative="1" as="geometry" />
        </mxCell>
      </root>
    </mxGraphModel>
  </diagram>
</mxfile>
